<mxfile host="app.diagrams.net" agent="Mozilla/5.0 (Macintosh; Intel Mac OS X 10_15_7) AppleWebKit/537.36 (KHTML, like Gecko) Chrome/138.0.0.0 Safari/537.36" version="28.0.7">
  <diagram name="Pagina-1" id="qe_a-qAsQhKxONQ2-E6W">
    <mxGraphModel dx="697" dy="450" grid="1" gridSize="10" guides="1" tooltips="1" connect="1" arrows="1" fold="1" page="1" pageScale="1" pageWidth="827" pageHeight="1169" math="0" shadow="0">
      <root>
        <mxCell id="0" />
        <mxCell id="1" parent="0" />
        <mxCell id="ZFqxxhFOFnkcWJwE46Al-32" value="CustomUser" style="swimlane;childLayout=stackLayout;horizontal=1;startSize=50;horizontalStack=0;rounded=1;fontSize=14;fontStyle=0;strokeWidth=2;resizeParent=0;resizeLast=1;shadow=0;dashed=0;align=center;arcSize=4;whiteSpace=wrap;html=1;fillColor=#dae8fc;strokeColor=#6c8ebf;gradientColor=none;spacingTop=0;" vertex="1" parent="1">
          <mxGeometry x="200" y="140" width="212" height="280" as="geometry">
            <mxRectangle x="200" y="140" width="110" height="50" as="alternateBounds" />
          </mxGeometry>
        </mxCell>
        <mxCell id="ZFqxxhFOFnkcWJwE46Al-33" value="&lt;div&gt;&lt;font style=&quot;font-size: 11px; background-color: light-dark(#ffffff, var(--ge-dark-color, #121212));&quot;&gt;+ id: INTEGER &amp;lt;&amp;lt;PK&amp;gt;&amp;gt;&lt;/font&gt;&lt;/div&gt;&lt;div&gt;&lt;font style=&quot;font-size: 11px; background-color: light-dark(#ffffff, var(--ge-dark-color, #121212));&quot;&gt;+ email: STRING &amp;lt;&amp;lt;UQ&amp;gt;&amp;gt;&lt;/font&gt;&lt;/div&gt;&lt;div&gt;&lt;font style=&quot;font-size: 11px; background-color: light-dark(#ffffff, var(--ge-dark-color, #121212));&quot;&gt;+ nome: STRING (150)&lt;/font&gt;&lt;/div&gt;&lt;div&gt;&lt;font style=&quot;font-size: 11px; background-color: light-dark(#ffffff, var(--ge-dark-color, #121212));&quot;&gt;+ cognome: STRING (150)&lt;/font&gt;&lt;/div&gt;&lt;div&gt;&lt;font style=&quot;font-size: 11px; background-color: light-dark(#ffffff, var(--ge-dark-color, #121212));&quot;&gt;+ citta: STRING (100)&lt;/font&gt;&lt;/div&gt;&lt;div&gt;&lt;font style=&quot;font-size: 11px; background-color: light-dark(#ffffff, var(--ge-dark-color, #121212));&quot;&gt;+ via: STRING (200)&lt;/font&gt;&lt;/div&gt;&lt;div&gt;&lt;font style=&quot;font-size: 11px; background-color: light-dark(#ffffff, var(--ge-dark-color, #121212));&quot;&gt;+ telefono: STRING (20)&lt;/font&gt;&lt;/div&gt;&lt;div&gt;&lt;font style=&quot;font-size: 11px; background-color: light-dark(#ffffff, var(--ge-dark-color, #121212));&quot;&gt;+ carta_identita: STRING (50)&lt;/font&gt;&lt;/div&gt;&lt;div&gt;&lt;font style=&quot;font-size: 11px; background-color: light-dark(#ffffff, var(--ge-dark-color, #121212));&quot;&gt;+ is_staff: BOOLEAN&lt;/font&gt;&lt;/div&gt;&lt;div&gt;&lt;font style=&quot;font-size: 11px; background-color: light-dark(#ffffff, var(--ge-dark-color, #121212));&quot;&gt;+ is_active: BOOLEAN&lt;/font&gt;&lt;/div&gt;&lt;div&gt;&lt;font style=&quot;font-size: 11px; background-color: light-dark(#ffffff, var(--ge-dark-color, #121212));&quot;&gt;+ date_joined: DATETIME&lt;/font&gt;&lt;/div&gt;&lt;div&gt;&lt;br&gt;&lt;/div&gt;" style="align=left;strokeColor=none;fillColor=none;spacingLeft=4;spacingRight=4;fontSize=12;verticalAlign=top;resizable=0;rotatable=0;part=1;html=1;whiteSpace=wrap;" vertex="1" parent="ZFqxxhFOFnkcWJwE46Al-32">
          <mxGeometry y="50" width="212" height="230" as="geometry" />
        </mxCell>
        <mxCell id="ZFqxxhFOFnkcWJwE46Al-36" value="LoanRequest" style="swimlane;childLayout=stackLayout;horizontal=1;startSize=50;horizontalStack=0;rounded=1;fontSize=14;fontStyle=0;strokeWidth=2;resizeParent=0;resizeLast=1;shadow=0;dashed=0;align=center;arcSize=4;whiteSpace=wrap;html=1;fillColor=#ffe6cc;strokeColor=#d79b00;" vertex="1" parent="1">
          <mxGeometry x="510" y="140" width="210" height="280" as="geometry">
            <mxRectangle x="510" y="140" width="120" height="50" as="alternateBounds" />
          </mxGeometry>
        </mxCell>
        <mxCell id="ZFqxxhFOFnkcWJwE46Al-37" value="&lt;div&gt;&lt;div&gt;&lt;font style=&quot;font-size: 11px;&quot;&gt;+ id: INTEGER &amp;lt;&amp;lt;PK&amp;gt;&amp;gt;&lt;/font&gt;&lt;/div&gt;&lt;div&gt;&lt;span style=&quot;background-color: transparent; color: light-dark(rgb(0, 0, 0), rgb(255, 255, 255));&quot;&gt;&lt;font style=&quot;font-size: 11px;&quot;&gt;+ user: INTEGER &amp;lt;&amp;lt;FK&amp;gt;&amp;gt;&lt;/font&gt;&lt;/span&gt;&lt;/div&gt;&lt;div&gt;&lt;font style=&quot;font-size: 11px;&quot;&gt;+ user_email: STRING&lt;/font&gt;&lt;/div&gt;&lt;div&gt;&lt;font style=&quot;font-size: 11px;&quot;&gt;+ user_nome: STRING (150)&lt;/font&gt;&lt;/div&gt;&lt;div&gt;&lt;font style=&quot;font-size: 11px;&quot;&gt;+ user_cognome: STRING (150)&lt;/font&gt;&lt;/div&gt;&lt;div&gt;&lt;font style=&quot;font-size: 11px;&quot;&gt;+ user_citta: STRING (100)&lt;/font&gt;&lt;/div&gt;&lt;div&gt;&lt;font style=&quot;font-size: 11px;&quot;&gt;+ user_via: STRING (200)&lt;/font&gt;&lt;/div&gt;&lt;div&gt;&lt;font style=&quot;font-size: 11px;&quot;&gt;+ user_telefono: STRING (20)&lt;/font&gt;&lt;/div&gt;&lt;div&gt;&lt;font style=&quot;font-size: 11px;&quot;&gt;+ user_carta_identita: STRING (50)&lt;/font&gt;&lt;/div&gt;&lt;div&gt;&lt;font style=&quot;font-size: 11px;&quot;&gt;+ importo: FLOAT&lt;/font&gt;&lt;/div&gt;&lt;div&gt;&lt;font style=&quot;font-size: 11px;&quot;&gt;+ motivo: TEXT&lt;/font&gt;&lt;/div&gt;&lt;div&gt;&lt;font style=&quot;font-size: 11px;&quot;&gt;+ data_richiesta: DATETIME&lt;/font&gt;&lt;/div&gt;&lt;div&gt;&lt;font style=&quot;font-size: 11px;&quot;&gt;+ data_esito: DATETIME&lt;/font&gt;&lt;/div&gt;&lt;div&gt;&lt;font style=&quot;font-size: 11px;&quot;&gt;+ stato: STRING (20)&lt;br&gt;&lt;/font&gt;&lt;/div&gt;&lt;/div&gt;&lt;div&gt;&lt;br&gt;&lt;/div&gt;" style="align=left;strokeColor=none;fillColor=none;spacingLeft=4;spacingRight=4;fontSize=12;verticalAlign=top;resizable=0;rotatable=0;part=1;html=1;whiteSpace=wrap;" vertex="1" parent="ZFqxxhFOFnkcWJwE46Al-36">
          <mxGeometry y="50" width="210" height="230" as="geometry" />
        </mxCell>
        <mxCell id="ZFqxxhFOFnkcWJwE46Al-48" value="" style="edgeStyle=entityRelationEdgeStyle;fontSize=12;html=1;endArrow=ERoneToMany;startArrow=ERmandOne;rounded=0;entryX=0;entryY=0.5;entryDx=0;entryDy=0;exitX=1;exitY=0.5;exitDx=0;exitDy=0;" edge="1" parent="1" source="ZFqxxhFOFnkcWJwE46Al-33" target="ZFqxxhFOFnkcWJwE46Al-36">
          <mxGeometry width="100" height="100" relative="1" as="geometry">
            <mxPoint x="212" y="490" as="sourcePoint" />
            <mxPoint x="312" y="390" as="targetPoint" />
          </mxGeometry>
        </mxCell>
      </root>
    </mxGraphModel>
  </diagram>
</mxfile>
